# xmcd
#
# Track frame offsets:
#	150
#	11732
#	25792
#	36932
#	50577
#	62262
#	77252
#	87962
#	102512
#	115610
#	126717
#	138247
#
# Disc length: 2040 seconds
#
# Revision: 0
# Processed by: cddbd v1.4PL0 Copyright (c) Steve Scherf et al.
# Submitted via: EasyCDDAExtractor 4.5.2.1
#
DISCID=9507f60c
DTITLE=Clyde McPhatter with Billy Ward and His Dominoes - Clyde McPhatter with B
DTITLE=illy Ward
DYEAR=1900
DGENRE=Blues
TTITLE0=Sixty Minute Man
TTITLE1=Do Something For Me
TTITLE2=That's What You're Doing To Me
TTITLE3=Deep Sea Blues
TTITLE4=Pedal Pushin' Papa
TTITLE5=Don't Leave Me This Way
TTITLE6=Have Mercy Baby
TTITLE7=I Am With You
TTITLE8=Chicken Blues
TTITLE9=Weeping Willow Blues
TTITLE10=Love, Love, Love
TTITLE11=The Bells
EXTD=
EXTT0=
EXTT1=
EXTT2=
EXTT3=
EXTT4=
EXTT5=
EXTT6=
EXTT7=
EXTT8=
EXTT9=
EXTT10=
EXTT11=
PLAYORDER=
